<svg width="800" height="600" xmlns="http://www.w3.org/2000/svg">
  <defs>
    <linearGradient id="bg" x1="0%" y1="0%" x2="100%" y2="100%">
      <stop offset="0%" style="stop-color:#f8fafc;stop-opacity:1" />
      <stop offset="100%" style="stop-color:#e2e8f0;stop-opacity:1" />
    </linearGradient>
    <linearGradient id="cardBg" x1="0%" y1="0%" x2="0%" y2="100%">
      <stop offset="0%" style="stop-color:#ffffff;stop-opacity:1" />
      <stop offset="100%" style="stop-color:#f8fafc;stop-opacity:1" />
    </linearGradient>
  </defs>
  
  <!-- Background -->
  <rect width="800" height="600" fill="url(#bg)" />
  
  <!-- Browser Chrome -->
  <rect x="20" y="20" width="760" height="560" rx="12" fill="white" stroke="#e2e8f0" stroke-width="1" />
  <rect x="20" y="20" width="760" height="40" rx="12" fill="#f8fafc" />
  <circle cx="40" cy="40" r="6" fill="#ef4444" />
  <circle cx="58" cy="40" r="6" fill="#eab308" />
  <circle cx="76" cy="40" r="6" fill="#22c55e" />
  <rect x="100" y="32" width="200" height="16" rx="8" fill="white" stroke="#e2e8f0" stroke-width="1" />
  <text x="110" y="43" font-family="Arial, sans-serif" font-size="10" fill="#64748b">resumeforge.pro/builder</text>
  
  <!-- Resume Preview -->
  <rect x="40" y="80" width="400" height="480" rx="8" fill="url(#cardBg)" stroke="#e2e8f0" stroke-width="1" />
  <text x="60" y="110" font-family="Arial, sans-serif" font-size="20" font-weight="bold" fill="#1e293b">Alex Johnson</text>
  <text x="60" y="130" font-family="Arial, sans-serif" font-size="12" fill="#2563eb">Senior Software Engineer</text>
  <text x="60" y="150" font-family="Arial, sans-serif" font-size="10" fill="#64748b">alex.johnson@email.com • San Francisco, CA</text>
  
  <text x="60" y="180" font-family="Arial, sans-serif" font-size="10" font-weight="bold" fill="#94a3b8">EXPERIENCE</text>
  <rect x="60" y="190" width="360" height="8" rx="4" fill="#e2e8f0" />
  <rect x="60" y="205" width="320" height="8" rx="4" fill="#e2e8f0" />
  <rect x="60" y="220" width="340" height="8" rx="4" fill="#e2e8f0" />
  
  <text x="60" y="260" font-family="Arial, sans-serif" font-size="10" font-weight="bold" fill="#94a3b8">SKILLS</text>
  <rect x="60" y="270" width="60" height="20" rx="10" fill="#dbeafe" />
  <text x="75" y="284" font-family="Arial, sans-serif" font-size="9" fill="#1d4ed8">React</text>
  <rect x="130" y="270" width="70" height="20" rx="10" fill="#e9d5ff" />
  <text x="145" y="284" font-family="Arial, sans-serif" font-size="9" fill="#7c3aed">Node.js</text>
  <rect x="210" y="270" width="60" height="20" rx="10" fill="#dcfce7" />
  <text x="225" y="284" font-family="Arial, sans-serif" font-size="9" fill="#16a34a">AWS</text>
  
  <!-- ATS Score Card -->
  <rect x="460" y="80" width="300" height="140" rx="8" fill="url(#cardBg)" stroke="#bbf7d0" stroke-width="2" />
  <text x="480" y="110" font-family="Arial, sans-serif" font-size="11" font-weight="bold" fill="#166534">ATS SCORE</text>
  <text x="480" y="140" font-family="Arial, sans-serif" font-size="36" font-weight="bold" fill="#16a34a">94%</text>
  <rect x="480" y="155" width="260" height="10" rx="5" fill="#bbf7d0" />
  <rect x="480" y="155" width="244" height="10" rx="5" fill="#22c55e" />
  <text x="480" y="180" font-family="Arial, sans-serif" font-size="10" fill="#166534">Excellent! Ready for top companies</text>
  
  <!-- AI Suggestions Card -->
  <rect x="460" y="240" width="300" height="140" rx="8" fill="url(#cardBg)" stroke="#bfdbfe" stroke-width="2" />
  <text x="480" y="270" font-family="Arial, sans-serif" font-size="11" font-weight="bold" fill="#1e40af">AI SUGGESTIONS</text>
  <circle cx="480" cy="295" r="8" fill="#22c55e" />
  <text x="495" y="298" font-family="Arial, sans-serif" font-size="10" fill="#334155">Keywords optimized</text>
  <circle cx="480" cy="320" r="8" fill="#22c55e" />
  <text x="495" y="323" font-family="Arial, sans-serif" font-size="10" fill="#334155">Format ATS-friendly</text>
  <circle cx="480" cy="345" r="8" fill="#22c55e" />
  <text x="495" y="348" font-family="Arial, sans-serif" font-size="10" fill="#334155">Action verbs added</text>
  
  <!-- Job Match Card -->
  <rect x="460" y="400" width="300" height="140" rx="8" fill="url(#cardBg)" stroke="#c7d2fe" stroke-width="2" />
  <text x="480" y="430" font-family="Arial, sans-serif" font-size="11" font-weight="bold" fill="#5b21b6">JOB MATCH</text>
  <text x="480" y="460" font-family="Arial, sans-serif" font-size="32" font-weight="bold" fill="#7c3aed">88%</text>
  <text x="480" y="480" font-family="Arial, sans-serif" font-size="10" fill="#334155">Matching: Senior Dev at Google</text>
  
  <!-- Watermark -->
  <text x="400" y="580" font-family="Arial, sans-serif" font-size="12" fill="#94a3b8" text-anchor="middle">Replace with your premium screenshot: hero-screenshot.png</text>
</svg>